<mxfile host="www.draw.io" modified="2019-11-05T03:21:49.717Z" agent="Mozilla/5.0 (Windows NT 10.0; WOW64; rv:60.0) Gecko/20100101 Firefox/60.0" etag="tdOGozWWdq60ZC7MyH-B" version="12.2.0" type="github" pages="1">
  <diagram id="RJrWflFxAzyOhQ8rOUpZ" name="Page-1">
    <mxGraphModel dx="768" dy="396" grid="1" gridSize="10" guides="1" tooltips="1" connect="1" arrows="1" fold="1" page="1" pageScale="1" pageWidth="850" pageHeight="1100" math="0" shadow="0">
      <root>
        <object label="" id="0">
          <mxCell/>
        </object>
        <mxCell id="1" parent="0"/>
        <mxCell id="S95Mi0_vnqYXSJHxPisj-1" value="" style="edgeStyle=none;rounded=0;orthogonalLoop=1;jettySize=auto;html=1;" edge="1" parent="1" source="YNVYDkML0iBWy7hIrWbp-1" target="YNVYDkML0iBWy7hIrWbp-2">
          <mxGeometry relative="1" as="geometry"/>
        </mxCell>
        <mxCell id="YNVYDkML0iBWy7hIrWbp-1" value="" style="rounded=1;whiteSpace=wrap;html=1;" parent="1" vertex="1">
          <mxGeometry x="250" y="130" width="120" height="60" as="geometry"/>
        </mxCell>
        <mxCell id="YNVYDkML0iBWy7hIrWbp-2" value="" style="ellipse;whiteSpace=wrap;html=1;" parent="1" vertex="1">
          <mxGeometry x="250" y="250" width="120" height="80" as="geometry"/>
        </mxCell>
      </root>
    </mxGraphModel>
  </diagram>
</mxfile>
